# xmcd CD database file
#
# Track frame offsets:
#	150
#	17445
#	40782
#	53272
#	76955
#	91827
#	109260
#	135435
#	159177
#	175380
#	191522
#	204565
#	218647
#	236112
#	243307
#	260432
#
# Disc length: 3803 seconds
#
# Revision: 5
# Processed by: cddbd v1.5PL3 Copyright (c) Steve Scherf et al.
# Submitted via: CDex 1.50beta8
#
DISCID=c30ed910
DTITLE=RCサクセション - Marvy
DYEAR=1900
DGENRE=Rock
TTITLE0=DIGITAL REVERB CHILD
TTITLE1=MIDNIGHT BLUE
TTITLE2=涙あふれて
TTITLE3=ありふれた出来事PART2
TTITLE4=CALL ME
TTITLE5=クールな気分
TTITLE6=共犯者
TTITLE7=遠い叫び
TTITLE8=HONEY PIE
TTITLE9=GIBSON(CHABO'S BLUES)
TTITLE10=空が泣き出したら
TTITLE11=夢中にさせて
TTITLE12=DANCE
TTITLE13=俺は電気
TTITLE14=SHELTER OF LOVE-ツル・ツル
TTITLE15=NAUGHTY BOY
EXTD=
EXTT0=
EXTT1=
EXTT2=
EXTT3=
EXTT4=
EXTT5=
EXTT6=
EXTT7=
EXTT8=
EXTT9=
EXTT10=
EXTT11=
EXTT12=
EXTT13=
EXTT14=
EXTT15=
PLAYORDER=
